Coordinates
version=1
nRows=14
nColumns=36
inDegrees=yes

Units are S.I. units (second, meters, Newtons, ...)
If the header above contains a line with 'inDegrees', this indicates whether rotational values are in degrees (yes) or radians (no).

endheader
time	pelvis_tilt	pelvis_list	pelvis_rotation	pelvis_tx	pelvis_ty	pelvis_tz	hip_flexion_r	hip_adduction_r	hip_rotation_r	knee_angle_r	knee_angle_r_beta	ankle_angle_r	subtalar_angle_r	mtp_angle_r	hip_flexion_l	hip_adduction_l	hip_rotation_l	knee_angle_l	knee_angle_l_beta	ankle_angle_l	subtalar_angle_l	mtp_angle_l	lumbar_extension	lumbar_bending	lumbar_rotation	arm_flex_r	arm_add_r	arm_rot_r	elbow_flex_r	pro_sup_r	arm_flex_l	arm_add_l	arm_rot_l	elbow_flex_l	pro_sup_l
      0.93000000	     -6.60665456	      6.78045888	      5.71673888	     -0.55590816	      1.06251567	     -0.56253279	     27.00484271	     -5.08090762	      2.60772407	     24.44243647	      0.42660099	     -2.57515422	     -8.17014712	     -7.43565182	     40.75209370	      2.36301823	     -3.73344090	     50.82196708	      0.88701066	      1.27082508	     -0.02811985	     -7.43565182	    -16.95455903	     -0.97773469	     -2.66051821	    -74.33911212	    -26.08246337	   -103.37354570	    149.33467747	    106.60849931	     79.20446954	    -72.73351322	     79.91236218	     92.10675127	    101.44719149
      0.94000000	     -6.86433638	      7.04776247	      6.19797983	     -0.54556605	      1.04682870	     -0.56293388	     27.53092194	     -5.53920032	      2.71408274	     21.97345008	      0.38350905	     -1.56364070	     -7.82822371	     -7.45666827	     41.15808752	      2.63715193	     -4.17101382	     50.17907316	      0.87579004	      1.81204654	     -0.04636885	     -7.45666827	    -17.63920260	     -0.71638196	     -6.12532944	    -73.22938815	    -24.09836932	    -97.68840169	    149.37554402	    110.28555147	     60.98813873	    -79.60089586	     62.44252470	     96.11367659	     99.50732501
      0.95000000	     -7.14164466	      7.31256072	      6.53549567	     -0.53515495	      1.03005556	     -0.56273574	     28.12350444	     -5.93497074	      2.87723006	     19.90566674	      0.34741942	     -0.77799215	     -7.72022682	     -7.50506158	     41.61158070	      2.76313912	     -4.69469300	     49.52898445	      0.86444385	      2.35096814	      0.06450701	     -7.50506158	    -18.39909429	     -0.71278250	    -10.30311363	    -71.23202015	    -23.59565216	    -90.07689137	    149.33620628	    110.74632837	     -2.98402010	    -83.44146278	     -0.84582528	    100.16723922	    102.26532067
      0.96000000	     -7.38833828	      7.55459644	      6.75365053	     -0.52459447	      1.01240265	     -0.56231260	     28.74375104	     -6.27320500	      3.00344431	     18.30695910	      0.31951671	     -0.15833600	     -7.89842219	     -7.50009054	     42.06695357	      2.74180832	     -5.29472318	     48.89581678	      0.85339299	      2.72165209	      0.44597397	     -7.50009054	    -19.17612706	     -0.78112879	    -14.57951817	    -68.73837531	    -23.64810730	    -81.66519309	    149.16725677	    110.74648707	    -50.21996833	    -76.82061408	    -47.48620981	    103.97092030	    102.14761373
      0.97000000	     -7.59206590	      7.80754244	      6.87719864	     -0.51408084	      0.99376576	     -0.56170351	     29.46512239	     -6.58658274	      3.11864193	     17.39036069	      0.30351905	      0.61872217	     -8.34777234	     -7.50006249	     42.58059351	      2.60350941	     -5.96537528	     48.38586254	      0.84449261	      2.93477303	      1.17389760	     -7.50006249	    -19.79255736	     -0.96376471	    -17.99515036	    -66.36084498	    -23.02648405	    -73.41340279	    148.63649402	    110.48278085	    -60.40752602	    -69.08751097	    -56.94478570	    106.30011733	    102.65154929
      0.98000000	     -7.70437635	      8.01991261	      6.89617173	     -0.50374175	      0.97420906	     -0.56092702	     30.24319237	     -6.78100304	      3.39786589	     17.11518246	      0.29871629	      0.80088543	     -9.52064525	     -7.50005189	     43.13737357	      2.34372149	     -6.57144199	     48.03329864	      0.83833921	      3.05077521	      2.18964439	     -7.50005189	    -20.31118339	     -1.18603049	    -20.29270362	    -64.34667235	    -21.41948749	    -65.81112319	    147.32368703	    109.82135802	    -62.88841908	    -62.93367462	    -58.56111087	    107.56980407	    101.86877582
      0.99000000	     -7.77520631	      8.21652710	      6.88128864	     -0.49348063	      0.95372811	     -0.56046838	     31.21119829	     -7.00036336	      3.59161449	     17.71707219	      0.30922124	      1.81642767	     -9.58296671	     -7.50004883	     43.78710613	      2.13445816	     -6.96210507	     47.85277531	      0.83518849	      2.79723680	      2.93424993	     -7.50004883	    -20.67974784	     -1.32064430	    -21.26286933	    -63.08925883	    -18.44103997	    -59.59978176	    145.25155406	    108.79773031	    -61.62895585	    -58.81457332	    -56.49350130	    107.77182203	    100.92323273
      1.00000000	     -7.84048698	      8.31237699	      6.84905890	     -0.48326908	      0.93210852	     -0.56020241	     32.26144888	     -7.11528526	      4.33470600	     18.78478430	      0.32785634	      3.00620437	     -9.36294880	     -7.50004572	     44.65025742	      1.84998934	     -7.15788865	     48.05419594	      0.83870394	      2.62187157	      3.88751471	     -7.50004572	    -21.10673112	     -1.41835326	    -22.06848417	    -61.53129479	    -15.60708953	    -54.10917381	    142.39098010	    107.63022181	    -60.30935771	    -54.78737445	    -54.64436822	    108.18470924	     99.91648826
      1.01000000	     -7.82447589	      8.30174206	      6.81734526	     -0.47288309	      0.90942799	     -0.55985822	     33.09081706	     -7.13751148	      5.17263810	     19.65659622	      0.34307232	      2.66429133	     -9.63962042	     -7.50003994	     45.64326234	      1.39445652	     -7.28680701	     48.71687691	      0.85026990	      3.01285728	      5.55888523	     -7.50003994	    -21.77629361	     -1.58993129	    -23.67498168	    -58.95839023	    -14.11035698	    -48.72145674	    138.65210830	    108.81136296	    -60.59858324	    -49.59039567	    -54.85140383	    109.22512406	    100.40123454
      1.02000000	     -7.79383126	      7.91372246	      6.56769910	     -0.46298864	      0.88601206	     -0.55928084	     34.03204197	     -6.52054428	      5.46718068	     20.62957556	      0.36005402	     -0.33237717	    -12.34115663	     -7.50003636	     46.89298649	      0.47524119	     -7.21405416	     49.84761925	      0.87000508	      3.78939387	      7.03498858	     -7.50003636	    -22.28488391	     -1.20310504	    -23.48731225	    -57.03893745	    -11.29626583	    -45.32585703	    135.07803723	    108.59400980	    -57.85563121	    -46.44757182	    -52.60190347	    109.43922722	    100.01877618
      1.03000000	     -8.08295113	      7.07113002	      5.76974246	     -0.45495168	      0.86196634	     -0.55832719	     36.99441208	     -4.87516864	      5.25499659	     24.92358335	      0.43499859	     -2.16692173	    -16.60188521	     -7.50003157	     48.83498589	     -1.15105791	     -7.15339420	     51.49687067	      0.89878995	      4.58979815	      7.74236730	     -7.50003157	    -22.61728198	     -0.46849678	    -22.26681016	    -54.63628679	     -8.75533365	    -42.82050942	    131.28363913	    108.82937905	    -54.04855770	    -43.73192070	    -49.92046867	    109.43346387	     99.51572993
      1.04000000	     -9.02490596	      6.26072947	      4.30994533	     -0.44919708	      0.83710408	     -0.55776526	     43.63950513	     -2.83936503	      5.29816134	     35.27705180	      0.61570070	      1.58672671	    -17.96209770	     -7.50002696	     51.55007967	     -2.97061375	     -7.19016979	     53.11656256	      0.92705890	      4.99138606	      7.58878413	     -7.50002696	    -22.59082729	      0.01800570	    -20.34175246	    -51.61364823	     -6.96858346	    -40.44371676	    127.62555861	    105.66892946	    -49.81337451	    -41.01370171	    -47.05870350	    109.80685204	     97.06570798
      1.05000000	     -9.92881782	      5.25200358	      2.33913947	     -0.44426910	      0.81345622	     -0.55758032	     51.05244629	      0.14043875	      7.22449249	     47.08013741	      0.82170341	      4.95648981	    -18.36478200	     -7.50002310	     54.05245410	     -5.07329412	     -6.77984330	     54.24170871	      0.94669641	      5.29802324	      7.43410833	     -7.50002310	    -22.82443306	      0.64635923	    -17.46842553	    -48.13769176	     -5.76098173	    -38.42028673	    123.68644038	    103.74469818	    -44.31859577	    -38.61835531	    -43.32665308	    109.60304588	     95.48986164
      1.06000000	    -10.01441440	      3.17116311	      0.33046295	     -0.43926634	      0.79378929	     -0.55777293	     55.74631458	      4.09880377	      8.51828706	     55.17538783	      0.96299218	      5.35747715	    -18.78931305	     -7.50002032	     55.62915147	     -7.89759701	     -5.43917655	     55.42634995	      0.96737230	      7.11314370	      7.31826739	     -7.50002032	    -24.20329927	      2.59018824	    -13.33981336	    -44.38992615	     -4.63394712	    -37.21752074	    119.36127654	    105.27955480	    -36.56805204	    -36.63503989	    -37.89140000	    107.95367498	     96.68429428
